<?xml version="1.0" encoding="utf-8"?>
<!-- Generator: Adobe Illustrator 23.0.4, SVG Export Plug-In . SVG Version: 6.00 Build 0)  -->
<svg version="1.1" id="Layer_1" xmlns="http://www.w3.org/2000/svg" xmlns:xlink="http://www.w3.org/1999/xlink" x="0px" y="0px"
	 viewBox="0 0 612 792" style="enable-background:new 0 0 612 792;" xml:space="preserve">
<style type="text/css">
	.st0{fill:#FFFFFF;}
</style>
<g>
	<path class="st0" d="M443.1,90H168.9C75.8,90,0,165.8,0,258.9v274.2C0,626.2,75.8,702,168.9,702h274.2
		c93.1,0,168.9-75.8,168.9-168.9V258.9C612,165.8,536.2,90,443.1,90z M557.7,533.1c0,63.2-51.4,114.6-114.6,114.6H168.9
		c-63.2,0-114.6-51.4-114.6-114.6V258.9c0-63.2,51.4-114.6,114.6-114.6h274.2c63.2,0,114.6,51.4,114.6,114.6L557.7,533.1
		L557.7,533.1z"/>
	<path class="st0" d="M306,238.3c-87,0-157.7,70.7-157.7,157.7c0,87,70.7,157.7,157.7,157.7S463.7,483,463.7,396
		C463.7,309.1,393,238.3,306,238.3z M306,499.4c-57,0-103.4-46.4-103.4-103.4c0-57,46.4-103.4,103.4-103.4S409.4,339,409.4,396
		C409.4,453,363,499.4,306,499.4z"/>
	<path class="st0" d="M470.3,192.3c-10.5,0-20.7,4.2-28.1,11.7c-7.4,7.4-11.7,17.7-11.7,28.2c0,10.5,4.3,20.7,11.7,28.2
		c7.4,7.4,17.7,11.7,28.1,11.7c10.5,0,20.7-4.3,28.2-11.7c7.4-7.4,11.7-17.7,11.7-28.2c0-10.5-4.2-20.8-11.7-28.2
		C491.1,196.5,480.8,192.3,470.3,192.3z"/>
</g>
</svg>
