<?xml version="1.0" encoding="utf-8"?>
<!-- Generator: Adobe Illustrator 23.0.4, SVG Export Plug-In . SVG Version: 6.00 Build 0)  -->
<svg version="1.1" id="Layer_1" xmlns="http://www.w3.org/2000/svg" xmlns:xlink="http://www.w3.org/1999/xlink" x="0px" y="0px"
	 viewBox="0 0 612 792" style="enable-background:new 0 0 612 792;" xml:space="preserve">
<style type="text/css">
	.st0{fill:#484849;}
</style>
<path class="st0" d="M301.8,90C133.1,92.3-2.3,231.5,0,400.2S141.5,704.3,310.2,702S614.3,560.5,612,391.8S470.5,87.7,301.8,90
	L301.8,90z M309.4,638c-14.1,0.2-41.1-35.7-58.4-106.6l113.8-1.6C349.4,601.3,323.3,637.9,309.4,638L309.4,638z M239.7,467.7
	c-2.5-21.5-4.1-45.1-4.5-70.7s0.6-49.2,2.5-70.8l134.5-1.8c2.5,21.6,4.1,45.1,4.5,70.7s-0.6,49.2-2.5,70.8L239.7,467.7z M64,399.4
	c-0.3-24.6,3.1-48.4,9.6-71l100.1-1.4c-1.9,23.2-2.7,47-2.4,70.8c0.3,23.7,1.7,47.5,4.3,70.7L75.5,470C68.3,447.7,64.3,424,64,399.4
	L64,399.4z M302.7,154c14.1-0.2,41.1,35.7,58.4,106.6l-113.8,1.6C262.6,190.8,288.7,154.2,302.7,154L302.7,154z M436.4,323.5
	l100.1-1.4c7.2,22.3,11.2,46,11.6,70.6c0.3,24.6-3.1,48.4-9.6,71l-100.1,1.4c1.9-23.2,2.7-47,2.4-70.8
	C440.4,370.4,438.9,346.6,436.4,323.5L436.4,323.5z M505.1,258.6l-79,1c-6.9-32.3-16.1-62-27.8-87.3
	C441.7,190.1,478.8,220.4,505.1,258.6L505.1,258.6z M207.6,174.8c-11,25.6-19.5,55.6-25.5,88.1l-79,1
	C128.5,225.2,164.8,193.9,207.6,174.8L207.6,174.8z M106.9,533.5l79-1c6.9,32.3,16.3,62,27.9,87.3
	C170.4,601.9,133.3,571.6,106.9,533.5L106.9,533.5z M404.4,617.2c11-25.6,19.5-55.6,25.5-88.1l79-1
	C483.5,566.8,447.2,598.1,404.4,617.2L404.4,617.2z"/>
</svg>
