<!-- Generator: Adobe Illustrator 23.0.4, SVG Export Plug-In  -->
<svg version="1.1" xmlns="http://www.w3.org/2000/svg" xmlns:xlink="http://www.w3.org/1999/xlink" x="0px" y="0px" width="100%"
	 height="100%" viewBox="0 0 53.47 53.47" style="enable-background:new 0 0 53.47 53.47;" xml:space="preserve">
<style type="text/css">
	.st0{fill:#636363;}
</style>
<defs>
</defs>
<path class="st0" d="M26.37,0C11.63,0.2-0.2,12.36,0,27.1c0.2,14.74,12.36,26.57,27.1,26.37c14.74-0.2,26.57-12.36,26.37-27.1
	C53.27,11.63,41.11-0.2,26.37,0L26.37,0z M27.03,47.88c-1.23,0.02-3.59-3.12-5.1-9.31l9.94-0.14
	C30.53,44.67,28.25,47.87,27.03,47.88L27.03,47.88z M20.94,33c-0.22-1.88-0.36-3.94-0.39-6.18c-0.03-2.24,0.05-4.3,0.22-6.19
	l11.75-0.16c0.22,1.89,0.36,3.94,0.39,6.18c0.03,2.24-0.05,4.3-0.22,6.19L20.94,33z M5.59,27.03c-0.03-2.15,0.27-4.23,0.84-6.2
	l8.75-0.12c-0.17,2.03-0.24,4.11-0.21,6.19c0.03,2.07,0.15,4.15,0.38,6.18L6.6,33.2C5.97,31.25,5.62,29.18,5.59,27.03L5.59,27.03z
	 M26.45,5.59c1.23-0.02,3.59,3.12,5.1,9.31l-9.94,0.14C22.94,8.81,25.22,5.61,26.45,5.59L26.45,5.59z M38.13,20.4l8.75-0.12
	c0.63,1.95,0.98,4.02,1.01,6.17c0.03,2.15-0.27,4.23-0.84,6.2l-8.75,0.12c0.17-2.03,0.24-4.11,0.21-6.19
	C38.48,24.5,38.35,22.42,38.13,20.4L38.13,20.4z M44.13,14.73l-6.9,0.09C36.63,12,35.82,9.4,34.8,7.19
	C38.59,8.75,41.83,11.39,44.13,14.73L44.13,14.73z M18.14,7.41c-0.96,2.24-1.7,4.86-2.23,7.7l-6.9,0.09
	C11.23,11.81,14.4,9.08,18.14,7.41L18.14,7.41z M9.34,38.75l6.9-0.09c0.6,2.82,1.42,5.42,2.44,7.63
	C14.89,44.72,11.65,42.08,9.34,38.75L9.34,38.75z M35.33,46.06c0.96-2.24,1.7-4.86,2.23-7.7l6.9-0.09
	C42.24,41.66,39.07,44.39,35.33,46.06L35.33,46.06z M35.33,46.06"/>
</svg>
