<?xml version="1.0" encoding="utf-8"?>
<!-- Generator: Adobe Illustrator 23.0.4, SVG Export Plug-In . SVG Version: 6.00 Build 0)  -->
<svg version="1.1" id="Layer_1" xmlns="http://www.w3.org/2000/svg" xmlns:xlink="http://www.w3.org/1999/xlink" x="0px" y="0px"
	 viewBox="0 0 612 792" style="enable-background:new 0 0 612 792;" xml:space="preserve">
<style type="text/css">
	.st0{fill-rule:evenodd;clip-rule:evenodd;fill:#FFFFFF;}
</style>
<g>
	<g>
		<path class="st0" d="M612,388.1c0,164.6-134.5,298.1-300.4,298.1c-52.7,0-102.2-13.4-145.2-37.1L0,702l54.2-159.9
			c-27.4-44.9-43.1-97.6-43.1-153.9C11.1,223.5,145.6,90,311.6,90C477.5,90,612,223.5,612,388.1L612,388.1z M311.6,137.5
			C172.2,137.5,59,249.9,59,388.1c0,54.8,17.9,105.6,48.1,147l-31.5,93.1l97.1-30.8c39.9,26.2,87.7,41.4,139,41.4
			c139.3,0,252.6-112.4,252.6-250.6C564.2,249.9,450.8,137.5,311.6,137.5L311.6,137.5z M463.3,456.8c-1.9-3.1-6.8-4.9-14.1-8.5
			c-7.4-3.7-43.6-21.3-50.3-23.8c-6.7-2.4-11.7-3.7-16.6,3.7c-4.9,7.3-19,23.8-23.3,28.6c-4.3,4.9-8.6,5.5-15.9,1.8
			c-7.4-3.7-31.1-11.4-59.2-36.3c-21.9-19.4-36.7-43.3-41-50.6c-4.3-7.3-0.4-11.2,3.2-14.9c3.3-3.3,7.4-8.5,11.1-12.8
			c3.7-4.3,4.9-7.4,7.4-12.2c2.5-4.9,1.2-9.1-0.6-12.8c-1.8-3.7-16.6-39.6-22.7-54.3c-6.1-14.6-12.2-14.1-16.6-14.1
			c-4.3,0-12.2,1.3-12.2,1.3s-14.8,1.8-21.5,9.1c-6.7,7.3-25.8,25-25.8,60.9c0,36,26.4,70.7,30.1,75.6
			c3.7,4.9,50.9,81.1,125.8,110.3c74.9,29.2,74.9,19.5,88.4,18.3c13.5-1.2,43.6-17.7,49.7-34.7C465.1,474.4,465.1,459.8,463.3,456.8
			L463.3,456.8z"/>
	</g>
</g>
</svg>
