<!-- Generator: Adobe Illustrator 23.0.4, SVG Export Plug-In  -->
<svg version="1.1" xmlns="http://www.w3.org/2000/svg" xmlns:xlink="http://www.w3.org/1999/xlink" x="0px" y="0px"
	 width="100%" height="100%" viewBox="0 0 286.27 286.27" style="enable-background:new 0 0 286.27 286.27;"
	 xml:space="preserve">
<style type="text/css">
	.st0{fill-rule:evenodd;clip-rule:evenodd;fill:#303038;}
</style>
<defs>
</defs>
<g>
	<g>
		<path class="st0" d="M286.27,139.45c0,77-62.92,139.44-140.53,139.44c-24.65,0-47.8-6.29-67.93-17.35L0,286.27l25.36-74.81
			c-12.8-21.02-20.16-45.66-20.16-72C5.2,62.43,68.12,0,145.74,0C223.35,0,286.27,62.43,286.27,139.45L286.27,139.45z M145.74,22.21
			c-65.17,0-118.16,52.59-118.16,117.24c0,25.64,8.35,49.4,22.5,68.74l-14.75,43.53l45.4-14.42c18.65,12.24,41,19.38,65.01,19.38
			c65.14,0,118.15-52.59,118.15-117.23C263.89,74.8,210.88,22.21,145.74,22.21L145.74,22.21z M216.7,171.57
			c-0.87-1.43-3.17-2.28-6.6-3.99c-3.45-1.71-20.39-9.98-23.55-11.12c-3.15-1.14-5.47-1.71-7.75,1.71
			c-2.3,3.42-8.9,11.12-10.92,13.4c-2,2.29-4.01,2.56-7.45,0.85c-3.45-1.71-14.56-5.33-27.71-16.96
			c-10.23-9.07-17.15-20.25-19.17-23.67c-2-3.42-0.2-5.26,1.51-6.97c1.55-1.54,3.45-3.99,5.17-5.98c1.73-2,2.3-3.44,3.45-5.72
			c1.15-2.28,0.58-4.27-0.29-5.98c-0.85-1.71-7.75-18.53-10.62-25.38c-2.85-6.83-5.73-6.58-7.75-6.58c-2,0-5.72,0.6-5.72,0.6
			s-6.91,0.85-10.06,4.27c-3.15,3.42-12.05,11.69-12.05,28.5c0,16.82,12.33,33.08,14.06,35.35c1.73,2.29,23.82,37.93,58.85,51.61
			c35.02,13.68,35.02,9.12,41.34,8.54c6.31-0.56,20.38-8.26,23.25-16.25C217.56,179.83,217.56,172.99,216.7,171.57L216.7,171.57z
			 M216.7,171.57"/>
	</g>
</g>
</svg>